<?xml version="1.0" standalone="no"?>
<!DOCTYPE svg PUBLIC "-//W3C//DTD SVG 20010904//EN"
 "http://www.w3.org/TR/2001/REC-SVG-20010904/DTD/svg10.dtd">
<svg version="1.0" xmlns="http://www.w3.org/2000/svg"
 width="512.000000pt" height="512.000000pt" viewBox="0 0 512.000000 512.000000"
 preserveAspectRatio="xMidYMid meet">
<metadata>
Created by potrace 1.14, written by Peter Selinger 2001-2017
</metadata>
<g transform="translate(0.000000,512.000000) scale(0.100000,-0.100000)"
fill="#000000" stroke="none">
<path d="M0 2560 l0 -2560 2560 0 2560 0 0 2560 0 2560 -2560 0 -2560 0 0
-2560z m4110 1656 c266 -48 500 -239 639 -521 82 -169 137 -361 165 -577 101
-770 -118 -1440 -567 -1738 -173 -114 -333 -161 -552 -161 -255 0 -436 68
-602 224 l-53 50 0 -592 0 -591 -325 0 -325 0 2 1933 3 1932 220 0 c305 0 308
-2 356 -236 16 -79 29 -146 29 -149 0 -2 35 32 78 76 242 252 471 361 762 363
52 0 129 -6 170 -13z m-2335 -29 c155 -40 294 -105 412 -194 80 -60 193 -164
193 -177 0 -20 -173 -277 -208 -310 -21 -19 -44 -30 -75 -33 -49 -6 -75 5
-171 70 -83 56 -210 113 -284 128 -97 18 -281 7 -362 -23 -127 -46 -235 -139
-309 -262 -44 -73 -95 -225 -118 -346 -24 -133 -25 -496 0 -626 66 -357 219
-565 473 -640 72 -21 243 -24 324 -5 80 19 192 81 294 161 104 81 147 99 204
82 47 -14 49 -16 167 -181 77 -109 93 -137 85 -152 -24 -44 -187 -194 -272
-250 -221 -146 -446 -209 -747 -210 -150 -1 -224 10 -346 48 -363 115 -631
403 -769 825 -150 459 -121 1035 72 1440 109 226 288 422 490 535 205 114 384
154 667 149 151 -4 196 -8 280 -29z"/>
<path d="M3563 3650 c-137 -36 -249 -115 -374 -263 l-49 -58 0 -663 0 -664 70
-70 c120 -120 255 -175 435 -175 340 -1 551 237 610 690 30 225 15 594 -30
774 -62 249 -190 399 -373 438 -78 16 -207 13 -289 -9z"/>
</g>
</svg>
