<?xml version="1.0" encoding="utf-8"?>
<!-- Generator: Adobe Illustrator 25.3.1, SVG Export Plug-In . SVG Version: 6.00 Build 0)  -->
<svg version="1.1" id="Capa_1" xmlns="http://www.w3.org/2000/svg" xmlns:xlink="http://www.w3.org/1999/xlink" x="0px" y="0px"
	 viewBox="0 0 512 236" style="enable-background:new 0 0 512 236;" xml:space="preserve">
<g>
	<g>
		<path d="M396.8,3.3c-30.7,0-59.7,11.9-80.5,32.7L256,89.4l-0.1-0.1l-32.3,28.5l0.2,0.2l-57.5,51c-13.7,13.5-31.8,21-51.1,21
			c-39.9,0-72.3-32.3-72.3-72s32.4-72,72.3-72c19.3,0,37.4,7.5,52.1,22l24.2,21.4l32.2-28.5l-27-23.9C174.9,15.4,146,3.4,115.2,3.4
			C51.6,3.3,0,54.7,0,118s51.6,114.7,115.2,114.7c30.7,0,59.6-11.9,80.5-32.6l60.3-53.4l0.1,0.1l32.2-28.6l-0.1-0.1l57.5-50.9
			C359.4,53.5,377.5,46,396.8,46c39.9,0,72.3,32.3,72.3,72s-32.4,72-72.3,72c-19.3,0-37.4-7.5-52.1-21.9l-24.2-21.4l-32.2,28.6
			l27,23.9c21.8,21.7,50.7,33.5,81.4,33.5c63.7,0,115.3-51.4,115.3-114.7S460.4,3.3,396.8,3.3z"/>
	</g>
</g>
</svg>
